<?xml version="1.0" encoding="UTF-8"?>
<svg version="1.1" viewBox="0 0 2048 487" width="882" height="210" xmlns="http://www.w3.org/2000/svg">
<path transform="translate(1813,82)" d="m0 0h17l6 4 4 5 1 4v9l-8 44-7 34-9 39-7 27-1 3h2l2-4 21-21 17-12 13-6 13-3h10l13 4 10 6 8 9 8 16 8 29v47l-3 36-1 13 3 7 2 1h8l17-5 7-2h7l-1 6-9 10-9 9-11 7-11 5-5 1h-13l-11-4-9-6-8-9-8-16-5-13-3-16-1-13 2-24 2-18 5-43 1-3-16 7-18 10-15 11-10 9-8 10-9 14-8 16-15 35-10 19-5 7-2 1h-16l-4-2-4 1-12 12-13 9-8 4-8 2h-14l-11-4-9-7-7-7-8-16-5-13-3-13-1-8v-14l5-50 4-33-18 8-18 11-16 12-9 9-11 15-12 23-12 29-9 19-8 11-2 2h-16l-6-3-4-5-3-8v-23l1-7-11 10-15 11-10 6-10 4-6 1h-8l-9-3-7-6-7-12-3-9-1-7 2-14 9-24 11-25 5-12 1-1h8l10 4 5 5 3 4 1 4v10l-6 12-10 18-9 20-4 13v9l4 3 9-1 10-4 16-12 13-12 8-7 6-7 14-53 11-38 9-27 8-18 2-2h12l11 4 7 8 2 6v19l-7 36-1 5 7-6 11-12 11-9 13-9 10-5 16-4h9l12 3 10 6 6 5 8 12 5 13 7 26v46l-4 40v10l3 6 2 1 13-1 17-6-1-5v-19l4-22 14-56 14-54 14-55 12-44 8-24 4-3z" fill="#1E4D53"/>
<path transform="translate(265,80)" d="m0 0h18l13 4 14 7 10 8 8 8 6 10 6 18 5 23 6 36 5 36 2 20 1 17v38l-3 40-6 49-6 29-4 10-4 5-8 4-6-1-6-5-5-10-4-16-4-27-4-36-2-26-1-24-13 3-17 2h-56l-9-1-6 10-15 27-14 23-11 16-10 13-11 12-11 11-12 9-14 8-13 5-15 3h-11l2-5 14-21 14-22 14-24 14-25 8-16 12-25 2-6-10-1-19-5-14-6-11-8-8-10-7-14-2-8v-8l2-7 4-4h6l17 9 15 5 20 3 32 1 3-9 20-47 16-40 8-21 8-14 11-12 10-8 14-7zm13 55-19 43-16 35-15 31v2l12 2 26 1h23l5-1v-14l-7-57-6-39-1-3z" fill="#1E4D53"/>
<path transform="translate(920,88)" d="m0 0h68l87 3 60 4 54 5 19 2 17 1 6 5 1 2-1 9-7 14-8 9-11 7-13 5-15 3h-29l-42-3-8 16-11 26-9 24-12 36-9 32-8 35-7 36-6 36-4 30-8 5-10 3-4-8-9-29-6-27-4-27v-57l5-37 7-35 9-33 11-31-9-2-37-8-24-6-12-5-10-6-8-8-6-12-2-10 3-3z" fill="#1E4D53"/>
<path transform="translate(441,83)" d="m0 0 8 1 18 6 14 7 5 4 6 9 4 14v16l-10 36-13 40-19 53-15 40-16 41-12 31-4 13-3 20v7l3 6 4 3 3 1h17l8-2 5 1-2 9-5 6-10 3h-13l-13-4-11-7-6-5-6-10-2-6-5-37v-10l2-21 11-44 18-62 13-43 17-56 7-24 2-10v-12l-1-11z" fill="#1E4D53"/>
<path transform="translate(793,154)" d="m0 0h19l3 1-2 4-10 14-13 18-14 19-15 20-14 19-15 20-3 8 10 20 10 17 10 15 8 10 8 6 10 4h8l21-3v10l-8 6-13 5-17 3-11 1-15-3-9-6-7-7-13-20-9-16-6-14-2-1-2 4-10 11-9 11-11 13-9 11-9 10-7 8-7 7-14 11-12 6-3 1h-15l-5-5-1-7 6-12 13-16 10-13 13-17 13-18 10-14 10-15 8-13-1-11-6-16-6-11-9-11-8-9-11-9-6-2-11 1-7 1-2-4 1-5 5-5 5-2 16-2h13l13 5 14 8 14 11 9 11 7 12 5 14v3h2l2-6 8-14 10-14 11-14 12-14 7-8 8-7 12-9 10-5z" fill="#1E4D53"/>
<path transform="translate(1245,202)" d="m0 0h11l10 5 11 9 6 10 2 9v15l7-6 10-7 16-8 19-5 6-1h25l15 4 14 8 11 9 4 6-1 6-5 3-10-1-15-3-16-1-14 2-11 4-11 6-10 8-10 11-7 10-9 16-7 15-18 62-9 32-5 5-8-1-12-5-9-7-7-10-4-11-1-6v-21l2-12 16-38 13-36 8-28 4-9 3-12-1-4-5-4-8-3h-10l-16 1-4-3 1-7 3-3 14-3z" fill="#1E4D53"/>
<path transform="translate(527,219)" d="m0 0h33l9 5 6 5 1 3v11l-4 12-6 10-9 10-9 8-15 10-15 8-14 6h-2l1 8 8 9 8 4 3 1h14l16-5 16-8 19-12 3-2 3 9-7 8-13 11-15 10-16 7-13 3h-12l-16-4-12-5-11-7-7-8-6-12-2-8v-10l6-20 7-16 7-11 11-12 14-10 14-7zm20 23-16 6-12 7-11 10-5 10-1 9 10-3 14-7 11-9 9-10 4-6v-7z" fill="#1E4D53"/>
<path transform="translate(1443,376)" d="m0 0h14l10 4 5 4 4 8 1 6v11l-3 10-6 7-9 4h-20l-8-4-6-7-3-9v-13l4-11 8-7z" fill="#1E4D53"/>
<path transform="translate(1471,202)" d="m0 0h9l8 4 3 4v18l-5 10-5 4-6 2h-14l-4-6v-14l8-15z" fill="#1E4D53"/>
</svg>
