<?xml version="1.0" encoding="UTF-8"?>
<svg version="1.1" viewBox="0 0 1368 888" width="342" height="222" xmlns="http://www.w3.org/2000/svg">
<path transform="translate(555,130)" d="m0 0h26l18 4 18 8 14 8 15 11 11 11 7 10 8 14 7 19 8 32 10 59 4 24 6 42 4 38 3 39 1 15v43l-5 69-4 40-7 54-7 37-6 21-8 16-9 7-8 3-9-1-8-6-8-11-5-13-6-25-3-17-6-48-2-15-2-25-1-6-3-47v-37l-14 4-17 3-16 2-22 1h-60l-27-1-11-1-9 16-6 11-10 19-32 54-20 30-14 18-8 10-11 12-9 10-13 12-11 9-21 14-17 9-19 7-18 4-16 2h-10v-4l10-16 11-16 28-44 16-27 10-17 10-18 9-16 8-14 8-16 11-24 7-15 10-21-14-2-25-6-16-5-18-8-14-9-10-9-8-10-9-16-7-16-3-17 3-16 4-6 7-4 10 2 22 12 14 6 21 6 10 2 26 3h48l13-30 20-47 16-39 11-27 9-23 9-25 10-21 10-15 9-11 12-12 13-9 14-8 15-6zm21 94-10 22-17 39-18 40-16 34-13 28-13 27v3l17 2 66 3h13l18-2v-13l-3-32-7-56-6-42-8-52z" fill="#1E4D54"/>
<path transform="translate(752,144)" d="m0 0h101l50 1 18 1 39 1 64 3 86 6 40 3 66 7 30 3 22 1 6 3 8 11-1 8-8 19-7 11-8 10-11 9-13 8-14 6-20 5-20 3h-38l-76-6h-3l-18 39-15 36-14 37-16 47-16 54-13 53-7 31-9 46-11 65-5 39-3 22-8 5-19 8-5-1-9-24-12-40-8-34-6-37-3-24-1-27v-38l1-30 5-36 4-31 11-55 12-44 8-25 14-40 3-6-13-1-45-9-51-12-30-10-16-9-11-9-9-10-9-17-4-18 3-5 3-2z" fill="#1E4D54"/>
</svg>
